# xmcd
#
# Track frame offsets: 
#        150
#        15971
#        27221
#        53958
#        65317
#        76542
#        106134
#        119568
#        132627
#        144382
#        161903
#
# Disc length: 2335 seconds
#
# Revision: 0
# Processed by: cddbd v1.5.2PL0 Copyright (c) Steve Scherf et al.
# Submitted via: ExactAudioCopy v0.99pb4
#
DISCID=8a091d0b
DTITLE=The Carrivick Sisters - Better Than 6 Cakes
DYEAR=2007
DGENRE=Bluegrass
TTITLE0=The Highwayman
TTITLE1=Will It Rain
TTITLE2=Crystal Stream
TTITLE3=Piggy Bank
TTITLE4=Down On The Sand
TTITLE5=Wagoner's Lad
TTITLE6=I Can't Believe
TTITLE7=Strawberries And Coriander
TTITLE8=Winter Came Today
TTITLE9=Martha Witchalse
TTITLE10=Another Perfect Day
EXTD=
EXTT0=
EXTT1=
EXTT2=
EXTT3=
EXTT4=
EXTT5=
EXTT6=
EXTT7=
EXTT8=
EXTT9=
EXTT10=
PLAYORDER=
